<svg xmlns="http://www.w3.org/2000/svg" width="64pt" height="64pt" viewBox="0 0 64 64" style="isolation:isolate" id="location"><defs><clipPath id="a"><rect width="64" height="64"></rect></clipPath></defs><g clip-path="url(#a)"><path fill-rule="evenodd" d=" M 49.59 29.322 C 50.702 26.884 51.322 24.175 51.322 21.322 C 51.322 10.658 42.664 2 32 2 C 21.336 2 12.678 10.658 12.678 21.322 C 12.678 24.175 13.298 26.884 14.41 29.322 L 14.395 29.322 L 29.84 60.212 C 31.032 62.596 32.968 62.596 34.16 60.212 L 49.605 29.322 L 49.605 29.322 L 49.59 29.322 Z  M 24.754 19.737 C 24.754 15.738 28.001 12.491 32 12.491 C 35.999 12.491 39.246 15.738 39.246 19.737 C 39.246 23.736 35.999 26.983 32 26.983 C 28.001 26.983 24.754 23.736 24.754 19.737 Z "></path></g></svg>