<svg xmlns="http://www.w3.org/2000/svg" viewBox="0 0 52 52" id="user-setting"><path d="M30.83 8.81c1.355.572 2.157 1 3.674.956 1.223-.036 2.285-.956 3.364-1.006 2.36-1.78 3.737-.186 4.132 4.782-.336.533-.621 1.09-.856 1.671-.253 1.476-.618 1.893.02 3.297 1.044 2.302 3.49 2.46 5.338 3.768 1.766.273 2.551 1.385 2.354 3.336-.735 1.827-2.034 2.885-3.896 3.175-.89.37-1.948.64-2.652 1.358-1.714 1.75-1.344 3.672-.694 5.81.35 1.151 1.563 3.296 1.156 4.511-.83 2.481-4.764.484-6.43.347-2.537-.209-4.151-.673-5.997 1.477-1.97 2.296-2.627 5.591-4.527 8.054h2.159c-.842-1.348-1.777-1.303-3.055-2.201-2.213-1.557-1.863-4.072-3.53-5.89-2.289-2.495-6.54-1.051-9.412-.446-4.127.869-2.38-2.718-1.713-5.89.346-1.645 1.03-2.94.258-4.628-1.301-2.851-7.6-2.476-7.37-5.648.304-4.218 7.123-3.644 7.433-8.69.081-1.32-.493-2.35-.775-3.603-.489-2.162-1.321-6.055 2.812-5.212.743.151 1.648 1.074 2.326 1.347 2.698 1.085 5.177.176 6.922-2.092 1.643-2.136 2.193-7.398 6.755-2.11.98 1.136.917 2.324 2.325 3.39 1.283.97 2.53-1.2 1.262-2.16-1.675-1.267-.86-4.421-2.848-5.847C28.002-.312 26.2-.339 24.6-.047c-1.832.334-1.875.907-2.993 1.878-.237.55-.429 1.118-.575 1.703-2.29 3.34-4.493 4.263-6.607 2.772-.71-.208-1.34-.81-2.105-.945-2.786-.492-6.474 2.414-6.42 5.389.072 4.077 5.433 4.54-.835 9.01-1.342.958-2.659.737-3.675 2.355-1.359 2.161-1.27 6.72 1.05 8.208.448.287 1.167.165 1.574.432 1.482-.163 2.228.733 2.237 2.69 1.402 1.268 1.63 2.552.681 3.852-.327 1.791-.952 2.936-.16 4.763 1.428 3.295 3.004 3.01 5.872 2.16 2.615-.776 5.4-1.487 7.198.734.661.816.907 2.252 1.445 3.184.434.751.838 1.425 1.481 2 .582.519 3.055 1.48 3.05 1.47.541.867 1.592.734 2.158 0 1.16-1.504 2.086-2.98 2.858-4.707.975-2.185 1.01-3.949 4.842-3.676.987.07 2.036.88 3.027 1.078 2.246.448 4.73-.325 6.128-2.273 1.72-2.398-.555-4.164-.805-6.737-.452-4.654 4.629-4.049 6.587-7.445.948-1.645 1.366-4.465.075-6.083-1.098-1.377-3.269-1.351-4.577-2.38-2.65-2.086-1.573-4.363-.981-7.162.499-2.358.045-4.881-2.094-6.28-3.79-2.48-6.815 2.45-10.944.708-1.464-.618-2.74 1.535-1.261 2.16z"></path><path d="M23.29 14.954c1.42.364 2.778.48 4.237.624 3.948.394 6.02 2.839 7.475 6.234 3.219 7.504-1.85 12.851-9.249 13.43-5.55.433-8.425-2.601-9.436-7.894-.552-2.89-.676-5.193 1.061-7.681 2.232-3.198 4.319-4.223 8.014-4.788 1.585-.242.912-2.651-.665-2.41-7.255 1.108-12.203 6.477-11.083 14.019.578 3.896 1.347 6.567 4.236 9.236 2.708 2.502 5.8 2.317 9.37 1.872 6.475-.807 11.92-5.117 11.327-12.13-.285-3.377-2.067-7.451-4.441-9.89-2.827-2.902-6.554-2.102-10.181-3.033-1.56-.4-2.225 2.01-.665 2.41z"></path><path d="M24.112 18.952c.43.222.84.347 1.328.353.389.004.905-.199 1.28-.073.472.16.666 1.013.778 1.49.163.693.064 1.226-.556 1.63-.92.6-2.343.807-2.815-.413-.477-1.235.274-2.344 1.366-2.859 1.454-.685.187-2.841-1.262-2.159-2.055.968-3.178 3.278-2.567 5.491.66 2.397 2.98 3.425 5.283 2.66 2.274-.755 3.558-2.605 2.961-5.015-.243-.981-.662-2.18-1.507-2.798-.443-.324-.964-.481-1.508-.526-.408-.034-1.175.238-1.52.06-1.427-.736-2.693 1.42-1.261 2.16zM34.163 32.41c.397-1.64-.654-2.095-1.71-3.15-1.444-1.444-1.482-2.334-3.646-2.498-4.427-.335-8.655-.07-11 4.188-.777 1.41 1.381 2.673 2.159 1.262 1.626-2.953 4.337-3.176 7.386-2.998 1.404.082 1.586 0 2.54.92.123.119 1.81 1.817 1.86 1.611-.378 1.563 2.032 2.23 2.411.665z"></path></svg>